<svg width="139" height="50" viewBox="0 0 139 50" fill="none" xmlns="http://www.w3.org/2000/svg">
<path d="M74.7732 30.5H85.9032L67.6989 0.500187L66.0316 3.24753L80.9016 27.7525H76.4403L63.8012 6.92353L59.9033 13.347L52.1076 0.5L50.4404 3.24743L65.3105 27.7525H60.849L48.2098 6.92344L42.5846 16.1936L49.6056 27.7525H45.0333L40.3017 19.9554L33.9032 30.5H37.2376L40.3017 25.4502L43.3661 30.5H54.6095L45.9194 16.1929L48.2098 12.4182L59.1819 30.5H70.3119L61.5704 16.0943L63.8012 12.4183L74.7732 30.5Z" fill="white"/>
<path d="M6.06925 40.5432C6.04084 40.2307 5.91442 39.9878 5.68999 39.8145C5.46839 39.6383 5.15163 39.5503 4.7397 39.5503C4.46697 39.5503 4.2397 39.5858 4.05788 39.6568C3.87607 39.7278 3.7397 39.8258 3.64879 39.9508C3.55788 40.073 3.51101 40.2136 3.50817 40.3727C3.50249 40.5034 3.52805 40.6184 3.58487 40.7179C3.64453 40.8173 3.72976 40.9054 3.84055 40.9821C3.95419 41.0559 4.09055 41.1213 4.24965 41.1781C4.40874 41.2349 4.58771 41.2846 4.78658 41.3273L5.53658 41.4977C5.9684 41.5915 6.34908 41.7165 6.67862 41.8727C7.01101 42.029 7.28942 42.215 7.51385 42.4309C7.74112 42.6469 7.913 42.8954 8.02947 43.1767C8.14595 43.4579 8.20561 43.7733 8.20845 44.1227C8.20561 44.6738 8.06641 45.1469 7.79084 45.5417C7.51527 45.9366 7.11896 46.2392 6.60192 46.4494C6.08771 46.6596 5.46697 46.7648 4.7397 46.7648C4.00959 46.7648 3.37322 46.6554 2.83061 46.4366C2.288 46.2179 1.86612 45.8855 1.56499 45.4395C1.26385 44.9934 1.10902 44.4295 1.1005 43.7477H3.12038C3.13743 44.029 3.21271 44.2633 3.34624 44.4508C3.47976 44.6383 3.663 44.7804 3.89595 44.877C4.13175 44.9736 4.40447 45.0219 4.71413 45.0219C4.99822 45.0219 5.2397 44.9835 5.43857 44.9068C5.64027 44.8301 5.7951 44.7236 5.90305 44.5872C6.01101 44.4508 6.06641 44.2946 6.06925 44.1184C6.06641 43.9537 6.01527 43.8131 5.91584 43.6966C5.81641 43.5773 5.663 43.475 5.45561 43.3898C5.25107 43.3017 4.9897 43.2207 4.67152 43.1469L3.75959 42.9338C3.00391 42.7605 2.40874 42.4807 1.97408 42.0943C1.53942 41.7051 1.32351 41.1795 1.32635 40.5176C1.32351 39.9778 1.46839 39.5048 1.76101 39.0986C2.05362 38.6923 2.45845 38.3756 2.9755 38.1483C3.49254 37.921 4.08203 37.8074 4.74396 37.8074C5.4201 37.8074 6.00675 37.9224 6.50391 38.1525C7.00391 38.3798 7.39169 38.6994 7.66726 39.1113C7.94283 39.5233 8.08345 40.0006 8.08913 40.5432H6.06925ZM14.5536 37.9267H16.6587V43.5559C16.6587 44.2065 16.5039 44.7733 16.1942 45.2562C15.8846 45.7363 15.4528 46.1085 14.8988 46.3727C14.3448 46.6341 13.7013 46.7648 12.9684 46.7648C12.2269 46.7648 11.5792 46.6341 11.0252 46.3727C10.4712 46.1085 10.0408 45.7363 9.73402 45.2562C9.4272 44.7733 9.27379 44.2065 9.27379 43.5559V37.9267H11.3832V43.3727C11.3832 43.6738 11.4485 43.9423 11.5792 44.1781C11.7127 44.4139 11.8988 44.5986 12.1374 44.7321C12.3761 44.8656 12.6531 44.9324 12.9684 44.9324C13.2837 44.9324 13.5593 44.8656 13.7951 44.7321C14.0337 44.5986 14.2198 44.4139 14.3533 44.1781C14.4869 43.9423 14.5536 43.6738 14.5536 43.3727V37.9267ZM17.9808 37.9267H20.593L22.8089 43.3301H22.9112L25.1271 37.9267H27.7393V46.654H25.6854V41.2932H25.6129L23.5163 46.5986H22.2038L20.1072 41.2633H20.0348V46.654H17.9808V37.9267ZM29.055 37.9267H31.6673L33.8832 43.3301H33.9854L36.2013 37.9267H38.8136V46.654H36.7596V41.2932H36.6871L34.5906 46.5986H33.2781L31.1815 41.2633H31.109V46.654H29.055V37.9267ZM42.2386 37.9267V46.654H40.1293V37.9267H42.2386ZM43.2773 39.6398V37.9267H50.6538V39.6398H48.0075V46.654H45.9279V39.6398H43.2773ZM54.2621 46.654V37.9267H60.3473V39.6398H56.3714V41.4295H60.0362V43.1469H56.3714V44.9409H60.3473V46.654H54.2621ZM63.8033 37.9267L65.397 40.6838H65.4652L67.076 37.9267H69.4368L66.8033 42.2903L69.522 46.654H67.1016L65.4652 43.867H65.397L63.7607 46.654H61.3572L64.0632 42.2903L61.4254 37.9267H63.8033ZM70.5277 46.654V37.9267H74.1328C74.7862 37.9267 75.3501 38.0545 75.8246 38.3102C76.3018 38.5631 76.6697 38.9167 76.9283 39.3713C77.1868 39.823 77.3161 40.3486 77.3161 40.948C77.3161 41.5503 77.1839 42.0773 76.9197 42.529C76.6584 42.9778 76.2848 43.3258 75.799 43.573C75.3132 43.8202 74.7365 43.9437 74.0689 43.9437H71.8445V42.2818H73.6768C73.995 42.2818 74.2607 42.2264 74.4737 42.1156C74.6896 42.0048 74.853 41.85 74.9638 41.6511C75.0746 41.4494 75.13 41.215 75.13 40.948C75.13 40.6781 75.0746 40.4452 74.9638 40.2491C74.853 40.0503 74.6896 39.8969 74.4737 39.7889C74.2578 39.6809 73.9922 39.627 73.6768 39.627H72.6371V46.654H70.5277ZM78.3558 46.654V37.9267H84.4411V39.6398H80.4652V41.4295H84.13V43.1469H80.4652V44.9409H84.4411V46.654H78.3558ZM88.9879 46.654H85.7621V37.9267H88.9837C89.8729 37.9267 90.6385 38.1014 91.2805 38.4508C91.9254 38.7974 92.4226 39.2974 92.772 39.9508C93.1214 40.6014 93.2962 41.3798 93.2962 42.2861C93.2962 43.1952 93.1214 43.9764 92.772 44.6298C92.4254 45.2832 91.9297 45.7846 91.2848 46.1341C90.6399 46.4807 89.8743 46.654 88.9879 46.654ZM87.8714 44.8557H88.907C89.3956 44.8557 89.8089 44.7733 90.147 44.6085C90.4879 44.4409 90.745 44.1696 90.9183 43.7946C91.0945 43.4167 91.1825 42.9139 91.1825 42.2861C91.1825 41.6582 91.0945 41.1582 90.9183 40.7861C90.7422 40.4111 90.4822 40.1412 90.1385 39.9764C89.7976 39.8088 89.3771 39.725 88.8771 39.725H87.8714V44.8557ZM96.6371 37.9267V46.654H94.5277V37.9267H96.6371ZM97.6758 39.6398V37.9267H105.052V39.6398H102.406V46.654H100.326V39.6398H97.6758ZM108.192 37.9267V46.654H106.082V37.9267H108.192ZM117.753 42.2903C117.753 43.2506 117.569 44.0645 117.199 44.7321C116.83 45.3997 116.33 45.9068 115.699 46.2534C115.071 46.6 114.367 46.7733 113.586 46.7733C112.801 46.7733 112.096 46.5986 111.468 46.2491C110.84 45.8997 110.341 45.3926 109.972 44.7278C109.605 44.0602 109.422 43.2477 109.422 42.2903C109.422 41.3301 109.605 40.5162 109.972 39.8486C110.341 39.1809 110.84 38.6738 111.468 38.3273C112.096 37.9807 112.801 37.8074 113.586 37.8074C114.367 37.8074 115.071 37.9807 115.699 38.3273C116.33 38.6738 116.83 39.1809 117.199 39.8486C117.569 40.5162 117.753 41.3301 117.753 42.2903ZM115.597 42.2903C115.597 41.7221 115.516 41.242 115.354 40.85C115.195 40.4579 114.965 40.1611 114.664 39.9594C114.365 39.7577 114.006 39.6568 113.586 39.6568C113.168 39.6568 112.809 39.7577 112.507 39.9594C112.206 40.1611 111.975 40.4579 111.813 40.85C111.654 41.242 111.574 41.7221 111.574 42.2903C111.574 42.8585 111.654 43.3386 111.813 43.7307C111.975 44.1227 112.206 44.4196 112.507 44.6213C112.809 44.823 113.168 44.9238 113.586 44.9238C114.006 44.9238 114.365 44.823 114.664 44.6213C114.965 44.4196 115.195 44.1227 115.354 43.7307C115.516 43.3386 115.597 42.8585 115.597 42.2903ZM126.412 37.9267V46.654H124.623L121.15 41.617H121.094V46.654H118.985V37.9267H120.8L124.235 42.9551H124.307V37.9267H126.412ZM132.456 40.5432C132.428 40.2307 132.301 39.9878 132.077 39.8145C131.855 39.6383 131.538 39.5503 131.126 39.5503C130.854 39.5503 130.626 39.5858 130.445 39.6568C130.263 39.7278 130.126 39.8258 130.036 39.9508C129.945 40.073 129.898 40.2136 129.895 40.3727C129.889 40.5034 129.915 40.6184 129.972 40.7179C130.031 40.8173 130.116 40.9054 130.227 40.9821C130.341 41.0559 130.477 41.1213 130.636 41.1781C130.795 41.2349 130.974 41.2846 131.173 41.3273L131.923 41.4977C132.355 41.5915 132.736 41.7165 133.065 41.8727C133.398 42.029 133.676 42.215 133.901 42.4309C134.128 42.6469 134.3 42.8954 134.416 43.1767C134.533 43.4579 134.592 43.7733 134.595 44.1227C134.592 44.6738 134.453 45.1469 134.178 45.5417C133.902 45.9366 133.506 46.2392 132.989 46.4494C132.474 46.6596 131.854 46.7648 131.126 46.7648C130.396 46.7648 129.76 46.6554 129.217 46.4366C128.675 46.2179 128.253 45.8855 127.952 45.4395C127.651 44.9934 127.496 44.4295 127.487 43.7477H129.507C129.524 44.029 129.599 44.2633 129.733 44.4508C129.866 44.6383 130.05 44.7804 130.283 44.877C130.518 44.9736 130.791 45.0219 131.101 45.0219C131.385 45.0219 131.626 44.9835 131.825 44.9068C132.027 44.8301 132.182 44.7236 132.29 44.5872C132.398 44.4508 132.453 44.2946 132.456 44.1184C132.453 43.9537 132.402 43.8131 132.303 43.6966C132.203 43.5773 132.05 43.475 131.842 43.3898C131.638 43.3017 131.376 43.2207 131.058 43.1469L130.146 42.9338C129.391 42.7605 128.795 42.4807 128.361 42.0943C127.926 41.7051 127.71 41.1795 127.713 40.5176C127.71 39.9778 127.855 39.5048 128.148 39.0986C128.44 38.6923 128.845 38.3756 129.362 38.1483C129.879 37.921 130.469 37.8074 131.131 37.8074C131.807 37.8074 132.393 37.9224 132.891 38.1525C133.391 38.3798 133.778 38.6994 134.054 39.1113C134.33 39.5233 134.47 40.0006 134.476 40.5432H132.456Z" fill="white"/>
</svg>
